<svg width="856" height="1021" viewBox="0 0 856 1021" fill="none" xmlns="http://www.w3.org/2000/svg">
<g style="mix-blend-mode:luminosity" opacity="0.6">
<path d="M681.437 817.992H195.25C186.68 817.992 179.733 824.939 179.733 833.509C179.733 842.078 186.68 849.025 195.25 849.025H681.437C690.007 849.025 696.954 842.078 696.954 833.509C696.954 824.939 690.007 817.992 681.437 817.992Z" fill="#E4EBF7"/>
<circle cx="428.418" cy="506.781" r="278.785" fill="#597EF7"/>
<path fill-rule="evenodd" clip-rule="evenodd" d="M710.811 268.269H368.833V237.562C368.833 230.901 374.222 225.5 380.869 225.5H698.775C705.422 225.5 710.811 230.901 710.811 237.562V268.269Z" fill="#253368"/>
<path fill-rule="evenodd" clip-rule="evenodd" d="M698.775 563.932H380.869C374.222 563.932 368.833 558.532 368.833 551.871V264.672H710.811V551.871C710.811 558.532 705.422 563.932 698.775 563.932Z" fill="#E4EBF7"/>
<path fill-rule="evenodd" clip-rule="evenodd" d="M396.624 245.406C396.624 249.586 393.242 252.975 389.07 252.975C384.898 252.975 381.517 249.586 381.517 245.406C381.517 241.225 384.898 237.836 389.07 237.836C393.242 237.836 396.624 241.225 396.624 245.406Z" fill="#FF7946"/>
<path fill-rule="evenodd" clip-rule="evenodd" d="M424.834 245.406C424.834 249.586 421.452 252.975 417.28 252.975C413.108 252.975 409.727 249.586 409.727 245.406C409.727 241.225 413.108 237.836 417.28 237.836C421.452 237.836 424.834 241.225 424.834 245.406Z" fill="#FAAD14"/>
<path fill-rule="evenodd" clip-rule="evenodd" d="M453.044 245.406C453.044 249.586 449.662 252.975 445.49 252.975C441.318 252.975 437.937 249.586 437.937 245.406C437.937 241.225 441.318 237.836 445.49 237.836C449.662 237.836 453.044 241.225 453.044 245.406Z" fill="#7CB305"/>
<path fill-rule="evenodd" clip-rule="evenodd" d="M405.795 523.229C403.72 523.229 402.039 521.545 402.039 519.468V301.448C402.039 299.371 403.72 297.688 405.795 297.688H677.586C679.66 297.688 681.342 299.371 681.342 301.448V519.468C681.342 521.545 679.66 523.229 677.586 523.229H405.795Z" fill="white"/>
<path d="M496.432 392.719C497.995 391.38 500.362 391.68 501.546 393.344L501.607 393.433L556.3 475.412L598.606 445.686C599.107 445.333 599.692 445.12 600.301 445.065L600.432 445.056L656.331 442.139C658.257 442.038 659.9 443.518 660 445.444C660.099 447.336 658.672 448.955 656.796 449.106L656.695 449.113L601.799 451.977L557.389 483.184C555.813 484.291 553.646 483.911 552.537 482.352L552.476 482.264L497.983 400.584L434.294 455.111C432.856 456.342 430.706 456.2 429.441 454.81L429.371 454.73C428.14 453.292 428.281 451.142 429.672 449.877L429.752 449.806L496.432 392.719Z" fill="#FF7946"/>
<path d="M648.053 343.243C649.127 341.641 651.296 341.213 652.898 342.287C654.471 343.342 654.911 345.452 653.91 347.045L653.853 347.133L604.121 421.29C602.874 423.149 600.232 423.365 598.698 421.759L598.624 421.679L541.781 358.433L502.378 385.019C501.822 385.394 501.17 385.601 500.502 385.616L500.368 385.616L431.967 384.498C430.038 384.466 428.501 382.878 428.532 380.949C428.563 379.055 430.097 377.537 431.98 377.515L432.081 377.515L499.383 378.615L540.394 350.945C541.808 349.99 543.699 350.2 544.87 351.425L544.944 351.505L600.819 413.674L648.053 343.243Z" fill="#FAAD14"/>
<path d="M561.899 390.735C562.77 389.973 563.96 389.693 565.076 389.983L565.191 390.015L601.606 400.817L655.277 392.265C657.149 391.967 658.909 393.215 659.258 395.064L659.275 395.164C659.574 397.035 658.326 398.796 656.476 399.145L656.376 399.162L601.923 407.838C601.454 407.913 600.976 407.891 600.517 407.775L600.38 407.738L565.049 397.258L503.656 450.952C502.525 451.941 500.892 452.094 499.601 451.342L499.505 451.284L426.16 405.392C424.525 404.369 424.029 402.215 425.052 400.58C426.056 398.975 428.151 398.467 429.774 399.418L429.864 399.472L501.01 443.988L561.899 390.735Z" fill="#597EF7"/>
<path fill-rule="evenodd" clip-rule="evenodd" d="M498.926 326.228H430.124C427.307 326.228 425.003 323.919 425.003 321.097C425.003 318.274 427.307 315.965 430.124 315.965H498.926C501.742 315.965 504.046 318.274 504.046 321.097C504.046 323.919 501.742 326.228 498.926 326.228Z" fill="#CCD7EE"/>
<path fill-rule="evenodd" clip-rule="evenodd" d="M459.146 350.432H433.54C430.712 350.432 428.419 348.134 428.419 345.3C428.419 342.465 430.712 340.168 433.54 340.168H459.146C461.975 340.168 464.267 342.465 464.267 345.3C464.267 348.134 461.975 350.432 459.146 350.432Z" fill="#CCD7EE"/>
<path d="M644.666 462.102C632.673 462.102 622.979 471.955 622.979 484.076C622.979 496.198 632.673 506.051 644.666 506.051C656.658 506.051 666.352 496.198 666.352 484.076C666.352 471.955 656.658 462.102 644.666 462.102ZM644.666 470.368C652.062 470.368 658.085 476.49 658.085 484.076C658.085 491.662 652.062 497.784 644.666 497.784C637.269 497.784 631.246 491.662 631.246 484.076C631.246 476.49 637.269 470.368 644.666 470.368Z" fill="#CCD7EE"/>
<path d="M659.088 472.487C661.187 471.589 663.616 472.562 664.514 474.661C665.721 477.48 666.352 480.549 666.352 483.704C666.352 486.286 665.929 488.813 665.111 491.197C664.37 493.356 662.019 494.506 659.86 493.765C657.736 493.037 656.589 490.749 657.258 488.619L657.292 488.515C657.814 486.992 658.086 485.372 658.086 483.704C658.086 481.754 657.715 479.87 657.008 478.137L656.914 477.912C656.016 475.814 656.99 473.385 659.088 472.487Z" fill="#597EF7"/>
<path fill-rule="evenodd" clip-rule="evenodd" d="M273.261 691.421C273.261 698.788 267.289 704.76 259.922 704.76C252.556 704.76 246.583 698.788 246.583 691.421C246.583 684.054 252.556 678.082 259.922 678.082C267.289 678.082 273.261 684.054 273.261 691.421Z" fill="#253368"/>
<path fill-rule="evenodd" clip-rule="evenodd" d="M257.42 811.469H262.583V695.402H257.42V811.469Z" fill="#253368"/>
<path fill-rule="evenodd" clip-rule="evenodd" d="M257.42 811.47L197.283 821.487L193.401 818.684L257.42 799.828V811.47Z" fill="#253368"/>
<path fill-rule="evenodd" clip-rule="evenodd" d="M262.583 811.47L322.72 821.487L326.601 818.684L262.583 799.828V811.47Z" fill="#253368"/>
<path fill-rule="evenodd" clip-rule="evenodd" d="M255.905 824.938H264.098V808.121H255.905V824.938Z" fill="#253368"/>
<path fill-rule="evenodd" clip-rule="evenodd" d="M202.917 825.16C202.917 829 199.804 832.113 195.964 832.113C192.124 832.113 189.011 829 189.011 825.16C189.011 821.32 192.124 818.207 195.964 818.207C199.804 818.207 202.917 821.32 202.917 825.16Z" fill="#253368"/>
<path fill-rule="evenodd" clip-rule="evenodd" d="M266.955 825.16C266.955 829 263.842 832.113 260.002 832.113C256.162 832.113 253.049 829 253.049 825.16C253.049 821.32 256.162 818.207 260.002 818.207C263.842 818.207 266.955 821.32 266.955 825.16Z" fill="#253368"/>
<path fill-rule="evenodd" clip-rule="evenodd" d="M331.601 825.16C331.601 829 328.487 832.113 324.647 832.113C320.808 832.113 317.694 829 317.694 825.16C317.694 821.32 320.808 818.207 324.647 818.207C328.487 818.207 331.601 821.32 331.601 825.16Z" fill="#253368"/>
<path fill-rule="evenodd" clip-rule="evenodd" d="M343.535 688.97H176.311C176.311 672.534 189.634 659.211 206.07 659.211H313.776C330.211 659.211 343.535 672.534 343.535 688.97Z" fill="#A3B5D6"/>
<path fill-rule="evenodd" clip-rule="evenodd" d="M312.879 578.916C312.879 578.916 311.624 599.8 292.538 598.325C273.077 596.821 275.169 575.742 275.169 575.742C275.169 575.742 274.223 562.64 275.58 545.02C276.641 531.252 278.271 513.271 279.789 504.527C281.425 495.089 290.11 488.862 299.049 489.552C312.636 490.601 317.243 501.562 316.943 511.086C316.651 520.348 316.212 535.589 315.663 545.79C314.609 565.406 312.879 578.916 312.879 578.916Z" fill="#ADC6FF"/>
<path fill-rule="evenodd" clip-rule="evenodd" d="M355.487 604.389C357.784 612.976 376.886 610.06 376.886 610.06L386.249 617.692C387.733 618.719 388.368 617.718 389.176 617.902C391.351 618.398 391.872 616.111 391.872 616.111C392.703 615.925 393.779 616.775 394.576 614.78C394.576 614.78 396.125 615.017 396.654 613.191C396.852 612.513 393.863 603.316 392.079 597.936C391.294 595.573 389.252 593.856 386.794 593.485L363.932 590.039C363.932 590.039 352.398 592.837 355.487 604.389Z" fill="#C99382"/>
<path d="M375.482 604.069C375.221 603.957 374.919 604.079 374.808 604.34C374.708 604.573 374.793 604.837 374.997 604.972L375.079 605.016L381.832 607.902L388.574 617.197C388.722 617.401 388.993 617.464 389.212 617.358L389.292 617.311C389.496 617.162 389.559 616.891 389.453 616.671L389.406 616.591L382.58 607.182C382.544 607.132 382.499 607.089 382.447 607.055L382.366 607.011L375.482 604.069Z" fill="#9B6160"/>
<path d="M380.073 601.23C379.826 601.091 379.513 601.179 379.373 601.426C379.249 601.646 379.305 601.919 379.492 602.075L379.569 602.128L385.767 605.624L391.263 615.247C391.388 615.467 391.65 615.559 391.88 615.477L391.965 615.439C392.184 615.313 392.276 615.051 392.194 614.82L392.156 614.736L386.59 604.991C386.559 604.937 386.519 604.889 386.472 604.85L386.396 604.798L380.073 601.23Z" fill="#9B6160"/>
<path d="M384.522 598.607C384.299 598.431 383.976 598.469 383.8 598.692C383.643 598.89 383.656 599.168 383.817 599.351L383.884 599.415L388.059 602.721L393.072 613.048C393.182 613.275 393.438 613.385 393.673 613.319L393.759 613.286C393.986 613.175 394.096 612.92 394.03 612.685L393.997 612.598L388.931 602.165C388.909 602.118 388.879 602.076 388.844 602.038L388.788 601.986L384.522 598.607Z" fill="#9B6160"/>
<path fill-rule="evenodd" clip-rule="evenodd" d="M294.86 564.341C294.86 564.341 275.626 560.291 271.72 576.274C267.693 592.758 285.963 597.499 285.963 597.499C285.963 597.499 298.904 600.519 314.835 604.309C324.561 606.622 335.352 608.963 343.43 609.536C352.176 610.158 354.155 605.679 356.108 597.687C358.427 588.196 358.421 584.038 350.324 580.784C342.605 577.683 331.752 574.89 323.438 572.344C307.589 567.491 294.86 564.341 294.86 564.341Z" fill="#ADC6FF"/>
<path fill-rule="evenodd" clip-rule="evenodd" d="M360.138 608.243L364.653 589.761L352.508 585.375L347.341 606.519L360.138 608.243Z" fill="#ADC6FF"/>
<path fill-rule="evenodd" clip-rule="evenodd" d="M373.445 642.059C335.242 632.123 295.651 622.24 263.975 615.101C263.975 615.101 240.071 613.795 238.806 635.641C237.569 657.053 263.393 663.414 263.393 663.414L367.133 679.558C367.133 679.558 384.057 682 386.885 663.199C389.463 646.048 373.445 642.059 373.445 642.059Z" fill="#597EF7"/>
<path fill-rule="evenodd" clip-rule="evenodd" d="M366.713 743.264C359.931 741.903 353.653 747.225 353.894 754.147C354.17 762.111 354.488 772.871 354.673 784.462C354.864 796.393 355.046 806.278 355.898 807.534C359.655 813.066 367.161 815.124 374.875 820.604C380.979 824.943 382.033 827.004 389.812 828.462C400.839 830.53 395.699 825.847 383.455 811.032C372.546 797.835 373.281 791.645 373.281 791.645L375.311 754.371C375.6 749.045 371.937 744.314 366.713 743.264Z" fill="#C99382"/>
<path fill-rule="evenodd" clip-rule="evenodd" d="M382.347 807.53C390.314 816.396 399.445 823.404 399.224 827.614C399.001 831.825 395.686 835.627 381.97 830.753C372.583 827.418 375.269 825.4 366.31 819.564C361.835 816.649 360.203 816.963 356.078 813.57C353.714 810.526 354.778 795.738 354.778 795.738L370.48 812.966C370.48 812.966 366.398 804.943 369.753 803.203C373.107 801.464 376.195 800.28 378.174 801.707C380.152 803.133 382.347 807.53 382.347 807.53Z" fill="#7D4556"/>
<path fill-rule="evenodd" clip-rule="evenodd" d="M390.121 663.493C384.972 726.084 379.11 787.327 379.11 787.327L352.646 787.309L348.511 661.241C348.511 661.241 350.832 646.774 371.274 644.141C390.076 641.719 390.121 663.493 390.121 663.493Z" fill="#597EF7"/>
<path fill-rule="evenodd" clip-rule="evenodd" d="M200.311 643.404C202.693 618.156 203.325 605.176 206.152 600.434C266.923 602.173 282.062 601.372 282.062 601.372C282.062 601.372 282.681 610.303 285.481 637.794C285.481 637.794 266.771 671.931 242.627 671.931C220.859 671.931 200.311 643.404 200.311 643.404Z" fill="#597EF7"/>
<path fill-rule="evenodd" clip-rule="evenodd" d="M206.152 600.431L207.301 588.98L281.716 589.874L282.062 601.343C282.062 601.343 242.68 602.861 206.152 600.431Z" fill="#597EF7"/>
<path fill-rule="evenodd" clip-rule="evenodd" d="M239.606 448.853C239.606 448.853 229.27 442.51 233.409 431.243C229.218 421.172 235.109 415.383 235.109 415.383C235.109 415.383 235.963 402.484 244.541 402.187C250.583 389.218 265.357 395.166 265.357 395.166C265.357 395.166 275.368 387.786 288.586 399.251C298.63 400.12 298.919 395.119 301.978 398.761C305.037 402.402 306.073 410.62 301.6 413.609C308.879 417.192 301.504 428.691 301.504 428.691C301.504 428.691 303.594 435.667 294.755 440.389C285.915 445.113 281.831 461.242 267.311 465.649C253.339 469.89 239.012 464.758 239.606 448.853Z" fill="#7D4556"/>
<path fill-rule="evenodd" clip-rule="evenodd" d="M243.822 473.337L248.022 451.266L277.291 456.459L276.57 475.932C276.249 484.625 268.833 491.343 260.161 490.793C259.995 490.782 259.831 490.772 259.664 490.761C250.796 490.202 242.741 482.168 243.822 473.337Z" fill="#C99382"/>
<path fill-rule="evenodd" clip-rule="evenodd" d="M255.909 417.568C255.909 417.568 257.495 425.489 251.378 427.296C252.248 437.491 247.86 436.527 247.86 436.527C247.86 436.527 240.967 427.382 235.993 435.176C231.266 442.58 239.039 453.743 246.447 452.167C258.399 472.077 282.959 473.486 291.318 460.718C296.395 452.959 294.789 441.52 295.507 436.171C297.274 423.028 294.916 418.997 294.916 418.997C294.916 418.997 289.867 419.982 284.441 415.755C278.459 420.033 270.077 415.551 270.077 415.551C270.077 415.551 264.277 422.703 255.909 417.568Z" fill="#C99382"/>
<path d="M242.248 436.801C240.558 436.439 239.393 436.859 238.752 437.809C238.465 438.235 238.346 438.656 238.32 438.965C238.293 439.274 238.521 439.545 238.829 439.572C239.137 439.598 239.408 439.37 239.435 439.062C239.447 438.926 239.516 438.679 239.68 438.437C240.055 437.88 240.755 437.627 242.014 437.897C243.202 438.151 244.186 439.07 244.755 440.295C244.993 440.808 245.129 441.327 245.145 441.737C245.156 442.036 245.104 442.19 245.093 442.195C243.94 442.829 243.038 443.744 242.738 444.755C242.353 446.052 242.975 447.318 244.608 448.373C244.868 448.541 245.214 448.466 245.382 448.206C245.55 447.946 245.475 447.599 245.215 447.432C243.967 446.625 243.583 445.843 243.811 445.074C244.013 444.392 244.713 443.683 245.631 443.178C247.49 442.159 245.307 437.455 242.248 436.801Z" fill="#9B6160"/>
<path d="M243.897 440.923C243.38 440.861 242.845 440.841 242.335 440.893C240.948 441.032 240.014 441.678 240.02 442.975C240.021 443.284 240.273 443.534 240.582 443.533C240.891 443.532 241.14 443.28 241.139 442.97C241.137 442.391 241.562 442.097 242.447 442.008C242.864 441.966 243.321 441.982 243.763 442.036L243.966 442.063C244.022 442.072 244.066 442.079 244.096 442.085C244.399 442.144 244.693 441.945 244.751 441.641C244.81 441.338 244.612 441.044 244.308 440.985L244.098 440.95C244.039 440.941 243.972 440.932 243.897 440.923Z" fill="#9B6160"/>
<path fill-rule="evenodd" clip-rule="evenodd" d="M275.318 436.027C274.852 441.407 270.122 445.391 264.747 444.928C259.374 444.463 255.395 439.724 255.859 434.344C256.322 428.964 261.055 424.978 266.428 425.443C271.803 425.908 275.782 430.647 275.318 436.027Z" fill="white"/>
<path d="M266.487 424.758C272.239 425.256 276.5 430.328 276.003 436.088C275.504 441.847 270.44 446.112 264.688 445.616C258.936 445.118 254.676 440.046 255.173 434.286C255.66 428.622 260.57 424.401 266.204 424.738L266.487 424.758ZM256.544 434.405C256.113 439.406 259.812 443.811 264.806 444.243C269.802 444.674 274.199 440.97 274.632 435.969C275.063 430.968 271.364 426.563 266.368 426.131C261.373 425.699 256.974 429.404 256.544 434.405Z" fill="#7D4556"/>
<path fill-rule="evenodd" clip-rule="evenodd" d="M298.992 437.156C298.527 442.536 293.797 446.52 288.422 446.057C283.049 445.592 279.068 440.853 279.534 435.473C279.997 430.093 284.73 426.107 290.103 426.572C295.477 427.037 299.457 431.776 298.992 437.156Z" fill="white"/>
<path d="M290.162 425.887C295.915 426.385 300.175 431.457 299.678 437.217C299.18 442.976 294.116 447.241 288.363 446.745C282.611 446.247 278.35 441.174 278.849 435.415C279.336 429.751 284.245 425.53 289.88 425.866L290.162 425.887ZM280.22 435.534C279.787 440.534 283.487 444.94 288.482 445.372C293.477 445.802 297.874 442.099 298.307 437.098C298.739 432.097 295.04 427.692 290.044 427.26C285.049 426.828 280.65 430.533 280.22 435.534Z" fill="#7D4556"/>
<path d="M277.719 434.428C277.45 434.581 277.356 434.923 277.508 435.192L277.649 435.448C277.764 435.657 277.891 435.896 278.028 436.16C278.421 436.915 278.814 437.719 279.18 438.537C279.509 439.274 279.801 439.988 280.046 440.664C280.868 442.942 281.057 444.589 280.541 445.185C279.962 445.852 279.206 446.246 278.3 446.41C277.378 446.576 276.37 446.494 275.39 446.254C275.021 446.163 274.748 446.074 274.604 446.018C274.316 445.905 273.992 446.048 273.879 446.336C273.767 446.624 273.909 446.949 274.197 447.062L274.389 447.131C274.575 447.194 274.824 447.269 275.124 447.342C276.243 447.617 277.4 447.711 278.499 447.513C279.643 447.307 280.629 446.792 281.386 445.919C282.284 444.884 282.062 442.952 281.098 440.283C280.844 439.579 280.542 438.84 280.201 438.079C279.825 437.239 279.423 436.416 279.021 435.642L278.754 435.136L278.482 434.64C278.329 434.37 277.988 434.276 277.719 434.428Z" fill="#9B6160"/>
<path fill-rule="evenodd" clip-rule="evenodd" d="M267.403 449.57C267.403 449.57 276.316 451.379 282.836 450.905C282.836 450.905 280.479 457.188 274.115 455.859C268.464 454.678 267.403 449.57 267.403 449.57Z" fill="white"/>
<path d="M267.52 448.993L268.69 449.211C269.619 449.375 270.644 449.54 271.734 449.693C274.065 450.022 276.362 450.254 278.506 450.349C280.072 450.418 281.511 450.41 282.794 450.317C283.221 450.286 283.537 450.709 283.387 451.111L283.311 451.298C283.234 451.477 283.122 451.711 282.973 451.987C282.628 452.625 282.2 453.263 281.681 453.86C279.789 456.038 277.23 457.11 273.995 456.435C271.668 455.949 269.889 454.803 268.6 453.205C267.986 452.443 267.525 451.628 267.192 450.812C266.991 450.318 266.877 449.927 266.827 449.69C266.741 449.276 267.106 448.909 267.52 448.993ZM268.485 450.37L268.268 450.33L268.282 450.368C268.573 451.082 268.978 451.798 269.516 452.465C270.639 453.859 272.184 454.853 274.235 455.282C277.018 455.863 279.163 454.964 280.794 453.087L281.06 452.766C281.316 452.442 281.544 452.105 281.746 451.767L281.871 451.546L281.852 451.548C280.797 451.587 279.661 451.578 278.455 451.525C276.268 451.429 273.935 451.193 271.57 450.86C270.466 450.704 269.428 450.537 268.485 450.37Z" fill="#7D4556"/>
<path d="M283.224 423.357C282.943 423.194 282.583 423.289 282.42 423.571C282.257 423.852 282.353 424.212 282.633 424.376C285.652 426.129 289.505 426.839 293.543 426.094C293.862 426.035 294.073 425.728 294.015 425.408C293.956 425.088 293.649 424.877 293.33 424.936C289.572 425.629 286.003 424.972 283.224 423.357Z" fill="#7D4556"/>
<path d="M278.293 432.315C277.185 432.171 276.017 432.172 274.919 432.26L274.495 432.299L274.311 432.321L274.493 433.687L274.884 433.646C274.929 433.642 274.978 433.638 275.029 433.634C276.039 433.553 277.117 433.551 278.115 433.681C278.713 433.759 279.246 433.881 279.698 434.049L279.917 434.137L280.463 432.872C279.837 432.602 279.107 432.421 278.293 432.315Z" fill="#7D4556"/>
<path d="M289.461 433.979C287.785 433.834 286.56 434.563 285.782 435.826C285.372 436.491 285.166 437.148 285.089 437.613C285.028 437.989 285.282 438.343 285.657 438.405C286.032 438.466 286.386 438.212 286.447 437.836L286.471 437.725C286.487 437.654 286.512 437.561 286.547 437.451C286.644 437.142 286.779 436.833 286.954 436.549C287.476 435.702 288.226 435.255 289.342 435.352C290.361 435.44 290.947 435.957 291.262 436.828C291.43 437.295 291.496 437.793 291.498 438.224L291.491 438.478C291.458 438.857 291.738 439.191 292.117 439.224C292.464 439.254 292.773 439.021 292.847 438.69L292.864 438.566C292.865 438.553 292.866 438.535 292.868 438.498C292.898 437.859 292.825 437.103 292.556 436.36C292.07 435.013 291.053 434.116 289.461 433.979Z" fill="#7D4556"/>
<path d="M266.054 431.952C264.379 431.807 263.154 432.536 262.376 433.798C261.965 434.464 261.758 435.12 261.682 435.586C261.62 435.961 261.874 436.315 262.249 436.377C262.59 436.433 262.914 436.228 263.016 435.908L263.083 435.62C263.097 435.563 263.116 435.497 263.139 435.424C263.237 435.115 263.371 434.806 263.546 434.522C264.069 433.675 264.82 433.228 265.936 433.325C266.954 433.412 267.541 433.93 267.855 434.801C268.024 435.268 268.09 435.766 268.091 436.197L268.084 436.451C268.052 436.83 268.332 437.164 268.711 437.197C269.058 437.227 269.367 436.993 269.441 436.662L269.459 436.514L269.462 436.471C269.491 435.832 269.418 435.076 269.149 434.332C268.663 432.986 267.647 432.089 266.054 431.952Z" fill="#7D4556"/>
<path d="M255.858 434.344L246.243 433.512" stroke="#7D4556" stroke-width="1.383"/>
<path d="M272.72 422.4C272.598 422.098 272.256 421.953 271.954 422.074C270.877 422.509 269.6 422.816 268.166 423.004C265.992 423.291 263.661 423.291 261.478 423.119L261.026 423.081L260.327 423.006C260.005 422.964 259.709 423.191 259.667 423.514C259.625 423.836 259.852 424.132 260.174 424.174L260.501 424.212L260.917 424.253C261.065 424.267 261.221 424.28 261.386 424.293C263.644 424.471 266.052 424.471 268.32 424.172C269.845 423.971 271.216 423.642 272.394 423.166C272.696 423.045 272.841 422.702 272.72 422.4Z" fill="#7D4556"/>
<path d="M273.633 461.934C273.324 461.92 273.062 462.159 273.048 462.468L273.03 462.76C273.018 462.919 273 463.117 272.976 463.344C272.905 464.006 272.802 464.667 272.662 465.279C272.37 466.554 271.95 467.426 271.488 467.68C271.217 467.829 271.117 468.169 271.266 468.441C271.414 468.712 271.754 468.812 272.025 468.663C272.863 468.204 273.393 467.101 273.753 465.53C273.904 464.869 274.014 464.166 274.089 463.463L274.133 462.997L274.166 462.52C274.18 462.21 273.942 461.948 273.633 461.934Z" fill="#9B6160"/>
<path d="M275.585 463.855C275.276 463.853 275.023 464.101 275.02 464.411L275.007 464.864C275.003 464.962 274.997 465.071 274.991 465.188C274.957 465.775 274.901 466.361 274.819 466.905C274.737 467.442 274.633 467.907 274.507 468.273C274.407 468.566 274.562 468.885 274.855 468.985C275.147 469.086 275.465 468.93 275.566 468.638C275.717 468.199 275.834 467.672 275.925 467.073C276.014 466.491 276.073 465.871 276.108 465.252L276.131 464.761C276.136 464.621 276.139 464.506 276.14 464.421C276.143 464.112 275.894 463.858 275.585 463.855Z" fill="#9B6160"/>
<path d="M271.047 464.255C270.752 464.165 270.439 464.331 270.348 464.627L270.302 464.772C270.272 464.861 270.233 464.973 270.185 465.103C270.053 465.465 269.904 465.827 269.741 466.161C269.44 466.782 269.129 467.226 268.883 467.395L268.811 467.438C268.533 467.574 268.418 467.909 268.554 468.187C268.689 468.465 269.024 468.581 269.302 468.445C269.854 468.175 270.313 467.548 270.748 466.651C270.929 466.279 271.092 465.883 271.237 465.488L271.365 465.122C271.387 465.055 271.405 464.999 271.419 464.955C271.509 464.659 271.343 464.346 271.047 464.255Z" fill="#9B6160"/>
<path d="M277.285 463.436C277.009 463.476 276.81 463.71 276.806 463.98L276.811 464.071L277.3 467.422C277.344 467.728 277.628 467.94 277.934 467.895C278.209 467.855 278.409 467.621 278.413 467.351L278.407 467.26L277.919 463.909C277.879 463.634 277.645 463.434 277.375 463.43L277.285 463.436Z" fill="#9B6160"/>
<path d="M258.072 463.186C257.814 463.016 257.467 463.088 257.297 463.347C257.128 463.606 257.2 463.953 257.458 464.123C258.329 464.694 259.227 465.214 260.15 465.683C265.77 468.543 271.638 469.353 276.68 469.008L277.15 468.972C277.578 468.937 277.882 468.901 278.046 468.876C278.352 468.829 278.562 468.544 278.516 468.238C278.47 467.932 278.185 467.721 277.879 467.767L277.623 467.8C277.513 467.813 277.379 467.827 277.222 467.841L277.057 467.855C272.101 468.269 266.24 467.525 260.657 464.684C259.771 464.233 258.908 463.734 258.072 463.186Z" fill="#9B6160"/>
<path d="M269.559 445.66C269.472 445.363 269.16 445.193 268.864 445.281L268.606 445.363C268.407 445.428 268.185 445.506 267.947 445.595C267.267 445.85 266.586 446.149 265.948 446.49C263.811 447.633 262.584 448.987 262.882 450.625C262.937 450.929 263.229 451.131 263.533 451.076C263.837 451.02 264.038 450.729 263.983 450.424C263.803 449.435 264.729 448.412 266.475 447.479C267.066 447.163 267.703 446.884 268.34 446.645L268.645 446.533C268.88 446.45 269.064 446.39 269.18 446.356C269.477 446.268 269.646 445.957 269.559 445.66Z" fill="#9B6160"/>
<path fill-rule="evenodd" clip-rule="evenodd" d="M242.293 474.383L239.167 480.192C239.167 480.192 217.482 482.797 206.894 489.182C197.319 494.957 198.525 555.918 199.998 576.434C194.84 600.521 214.088 598.578 214.088 598.578L282.777 604.251C282.777 604.251 292.831 598.535 287.833 581.561C289.115 567.758 311.499 501.56 302.852 492.902C296.128 486.17 279.898 484.853 279.898 484.853L278.81 478.104C278.81 478.104 268.392 476.913 242.293 474.383Z" fill="#ADC6FF"/>
<path d="M299.545 519.261C299.231 519.23 298.951 519.46 298.92 519.776C298.33 525.856 297.177 533.115 295.555 541.304C294.641 545.918 293.592 550.754 292.434 555.743C291.067 561.631 289.612 567.464 288.149 573.031L287.287 576.274C287.042 577.185 286.806 578.056 286.58 578.883L285.99 581.019L285.492 582.79C285.405 583.094 285.58 583.411 285.884 583.499C286.188 583.586 286.505 583.411 286.592 583.106L287.191 580.976L287.684 579.186C288.024 577.943 288.386 576.601 288.767 575.171C290.397 569.044 292.027 562.558 293.549 556.002C294.71 551.002 295.761 546.154 296.678 541.527L297.045 539.646C298.482 532.189 299.511 525.539 300.06 519.886C300.09 519.571 299.86 519.291 299.545 519.261Z" fill="#597EF7"/>
<path d="M244.511 483.402C244.206 483.321 243.892 483.504 243.812 483.81C243.731 484.116 243.914 484.43 244.22 484.51C254.943 487.339 265.47 488.063 274.334 487.582L275.068 487.539C275.522 487.511 275.932 487.481 276.296 487.451L277.023 487.384C277.048 487.382 277.07 487.379 277.088 487.377C277.403 487.341 277.628 487.058 277.593 486.743C277.558 486.429 277.274 486.202 276.96 486.238L276.459 486.287L275.632 486.353C275.432 486.367 275.22 486.382 274.997 486.395C266.096 486.95 255.399 486.274 244.511 483.402Z" fill="#597EF7"/>
<path fill-rule="evenodd" clip-rule="evenodd" d="M312.564 755.502C305.194 754.283 298.613 760.258 299.125 767.721C299.715 776.307 300.452 787.91 301.076 800.415C301.719 813.286 302.277 823.95 303.245 825.274C307.5 831.107 315.681 833.054 324.208 838.687C330.954 843.145 332.168 845.331 340.619 846.62C352.598 848.447 346.877 843.581 333.118 828.039C320.861 814.193 321.426 807.484 321.426 807.484L322.251 767.177C322.367 761.416 318.243 756.442 312.564 755.502Z" fill="#C99382"/>
<path fill-rule="evenodd" clip-rule="evenodd" d="M331.796 824.297C340.72 833.575 350.832 840.803 350.746 845.357C350.662 849.911 347.222 854.135 332.238 849.379C321.982 846.122 324.808 843.848 314.924 837.876C309.988 834.893 308.239 835.292 303.661 831.781C300.997 828.583 301.603 812.582 301.603 812.582L319.184 830.601C319.184 830.601 314.482 822.09 318.04 820.09C321.597 818.089 324.888 816.698 327.076 818.164C329.265 819.63 331.796 824.297 331.796 824.297Z" fill="#7D4556"/>
<path fill-rule="evenodd" clip-rule="evenodd" d="M334.154 667.649C330.944 735.403 326.912 801.727 326.912 801.727L298.346 802.705L289.158 666.781C289.158 666.781 290.848 646.47 313.087 647.469C333.153 648.37 334.154 667.649 334.154 667.649Z" fill="#597EF7"/>
<path fill-rule="evenodd" clip-rule="evenodd" d="M322.164 645.461C291.278 633.994 251.836 625.656 223.264 619.84C223.264 619.84 201.829 622.702 200.38 643.795C198.96 664.467 222.249 669.729 222.249 669.729L315.927 681.805C315.927 681.805 331.213 683.589 334.034 665.377C336.609 648.767 322.164 645.461 322.164 645.461Z" fill="#597EF7"/>
<path d="M205.355 603.57C205.045 603.57 204.795 603.821 204.795 604.131C204.795 604.409 204.998 604.64 205.264 604.684L205.355 604.691H281.56C281.87 604.691 282.12 604.44 282.12 604.131C282.12 603.852 281.917 603.621 281.651 603.578L281.56 603.57H205.355Z" fill="#253368"/>
<path d="M206.196 612.266C205.887 612.266 205.637 612.517 205.637 612.826C205.637 613.105 205.84 613.336 206.106 613.379L206.196 613.386H282.681C282.991 613.386 283.241 613.136 283.241 612.826C283.241 612.547 283.038 612.316 282.772 612.273L282.681 612.266H206.196Z" fill="#253368"/>
<path d="M258.698 603.43C258.421 603.444 258.2 603.658 258.169 603.926L258.166 604.017L258.587 612.854C258.602 613.163 258.864 613.401 259.173 613.387C259.451 613.373 259.671 613.159 259.702 612.891L259.705 612.8L259.284 603.963C259.269 603.654 259.007 603.416 258.698 603.43Z" fill="#253368"/>
<path fill-rule="evenodd" clip-rule="evenodd" d="M326.532 645.182L240.431 626.485L328.005 605.277L398.516 627.897L326.532 645.182Z" fill="#CCD7EE"/>
<path fill-rule="evenodd" clip-rule="evenodd" d="M330.151 639.305L267.618 625.726L329.74 610.121L382.431 626.751L330.151 639.305Z" fill="#4E5C93"/>
<path fill-rule="evenodd" clip-rule="evenodd" d="M240.229 630.98L240.411 626.516L328.324 644.883L326.554 649.559L240.229 630.98Z" fill="#253368"/>
<path d="M341.095 614.524L290.407 629.936C290.21 629.996 290.098 630.205 290.158 630.402C290.211 630.575 290.377 630.682 290.55 630.666L290.624 630.651L341.311 615.239C341.509 615.179 341.62 614.97 341.56 614.773C341.508 614.6 341.341 614.493 341.169 614.509L341.095 614.524Z" fill="#CCD7EE"/>
<path d="M334.663 611.503L278.044 627.686C277.846 627.743 277.731 627.95 277.788 628.148C277.837 628.322 278.001 628.431 278.174 628.418L278.249 628.405L334.868 612.221C335.066 612.165 335.181 611.958 335.124 611.759C335.075 611.586 334.91 611.476 334.737 611.489L334.663 611.503Z" fill="#CCD7EE"/>
<path d="M341.586 619.092L298.982 632.696C298.786 632.759 298.677 632.969 298.74 633.166C298.795 633.338 298.962 633.442 299.135 633.424L299.209 633.408L341.812 619.804C342.009 619.741 342.117 619.531 342.055 619.334C342 619.162 341.832 619.058 341.66 619.076L341.586 619.092Z" fill="#CCD7EE"/>
<path d="M352.946 620.881L310.342 634.485C310.146 634.548 310.037 634.758 310.1 634.955C310.155 635.127 310.322 635.231 310.495 635.213L310.569 635.197L353.173 621.593C353.369 621.53 353.477 621.32 353.415 621.123C353.36 620.951 353.193 620.847 353.02 620.865L352.946 620.881Z" fill="#CCD7EE"/>
<path d="M363.395 623.28L320.791 636.884C320.595 636.946 320.487 637.156 320.549 637.353C320.604 637.525 320.772 637.63 320.944 637.611L321.018 637.595L363.622 623.991C363.818 623.929 363.927 623.718 363.864 623.522C363.809 623.35 363.642 623.245 363.469 623.264L363.395 623.28Z" fill="#CCD7EE"/>
<path d="M278.092 623.572C277.889 623.536 277.695 623.67 277.658 623.873C277.626 624.051 277.725 624.222 277.886 624.287L277.959 624.308L331.578 634.04C331.781 634.076 331.975 633.942 332.012 633.739C332.044 633.561 331.945 633.39 331.784 633.325L331.711 633.304L278.092 623.572Z" fill="#CCD7EE"/>
<path d="M290.308 620.022C290.106 619.985 289.911 620.12 289.875 620.323C289.842 620.5 289.941 620.671 290.103 620.736L290.175 620.757L343.796 630.489C343.998 630.526 344.193 630.391 344.229 630.188C344.261 630.01 344.162 629.839 344.001 629.775L343.929 629.754L290.308 620.022Z" fill="#CCD7EE"/>
<path d="M305.316 618.045C305.113 618.008 304.919 618.143 304.882 618.346C304.85 618.524 304.949 618.695 305.11 618.759L305.183 618.78L358.801 628.512C359.004 628.549 359.198 628.414 359.235 628.211C359.267 628.034 359.168 627.863 359.007 627.798L358.935 627.777L305.316 618.045Z" fill="#CCD7EE"/>
<path d="M315.779 611.131C315.576 611.094 315.382 611.229 315.345 611.432C315.313 611.61 315.412 611.781 315.573 611.845L315.646 611.866L369.266 621.598C369.469 621.635 369.663 621.5 369.7 621.297C369.732 621.12 369.633 620.949 369.472 620.884L369.399 620.863L315.779 611.131Z" fill="#CCD7EE"/>
<path fill-rule="evenodd" clip-rule="evenodd" d="M326.625 649.565L330.51 650.125L398.687 632.852L432.173 521.004L359.207 531.334L326.625 649.565Z" fill="#253368"/>
<path fill-rule="evenodd" clip-rule="evenodd" d="M330.647 650.14L402.543 631.957C403.2 631.793 403.722 631.292 403.917 630.642L436.22 523.161C436.627 521.81 435.496 520.493 434.102 520.692L364.882 530.588C364.126 530.697 363.502 531.246 363.297 531.986L330.647 650.14Z" fill="#4E5C93"/>
<path fill-rule="evenodd" clip-rule="evenodd" d="M226.506 577.047C226.506 577.047 224.153 597.835 205.171 595.357C185.815 592.83 189.015 571.888 189.015 571.888C189.015 571.888 188.759 558.756 191.041 541.232C192.825 527.538 195.398 509.669 197.372 501.015C199.504 491.677 208.504 485.918 217.395 487.077C230.906 488.842 234.933 500.03 234.131 509.526C233.352 518.76 232.112 533.956 231.028 544.115C228.943 563.648 226.506 577.047 226.506 577.047Z" fill="#ADC6FF"/>
<path fill-rule="evenodd" clip-rule="evenodd" d="M281.412 603.758C283.912 613.104 304.702 609.931 304.702 609.931L314.891 618.238C316.505 619.354 317.199 618.266 318.077 618.465C320.444 619.006 321.01 616.516 321.01 616.516C321.916 616.313 323.087 617.239 323.954 615.068C323.954 615.068 325.639 615.326 326.216 613.339C326.429 612.599 323.177 602.591 321.235 596.735C320.381 594.163 318.16 592.295 315.484 591.892L290.603 588.141C290.603 588.141 278.049 591.183 281.412 603.758Z" fill="#C99382"/>
<path d="M303.173 603.408C302.889 603.287 302.56 603.419 302.438 603.704C302.329 603.96 302.425 604.252 302.653 604.397L302.733 604.439L310.082 607.582L317.42 617.697C317.582 617.92 317.876 617.989 318.115 617.873L318.202 617.821C318.424 617.66 318.493 617.365 318.378 617.125L318.326 617.039L310.896 606.799C310.856 606.744 310.807 606.697 310.751 606.66L310.663 606.613L303.173 603.408Z" fill="#9B6160"/>
<path d="M308.171 600.322C307.902 600.17 307.56 600.266 307.409 600.535C307.274 600.775 307.334 601.072 307.538 601.241L307.621 601.299L314.369 605.104L320.348 615.576C320.484 615.815 320.77 615.915 321.02 615.826L321.112 615.784C321.35 615.648 321.45 615.362 321.362 615.112L321.32 615.02L315.263 604.413C315.229 604.355 315.186 604.303 315.134 604.26L315.052 604.203L308.171 600.322Z" fill="#9B6160"/>
<path d="M313.01 597.469C312.768 597.277 312.416 597.318 312.224 597.561C312.054 597.776 312.067 598.079 312.243 598.278L312.316 598.348L316.859 601.944L322.317 613.184C322.438 613.435 322.722 613.554 322.98 613.477L323.065 613.443C323.315 613.322 323.434 613.038 323.357 612.779L323.323 612.694L317.81 601.339C317.785 601.289 317.753 601.243 317.715 601.202L317.654 601.145L313.01 597.469Z" fill="#9B6160"/>
<path fill-rule="evenodd" clip-rule="evenodd" d="M215.428 560.175C215.428 560.175 194.496 555.766 190.244 573.161C185.859 591.101 205.745 596.261 205.745 596.261C205.745 596.261 219.828 599.548 237.165 603.672C247.752 606.19 259.497 608.737 268.288 609.362C277.808 610.039 279.96 605.164 282.086 596.466C284.611 586.138 284.605 581.61 275.792 578.071C267.39 574.695 255.578 571.655 246.531 568.884C229.282 563.601 215.428 560.175 215.428 560.175Z" fill="#ADC6FF"/>
<path fill-rule="evenodd" clip-rule="evenodd" d="M286.472 607.954L291.389 587.84L278.169 583.066L272.545 606.077L286.472 607.954Z" fill="#ADC6FF"/>
<path d="M233.993 520.945C233.679 520.911 233.397 521.139 233.363 521.454L233.195 522.907C232.81 526.051 232.057 531.342 230.972 538.614L227.194 563.587C227.154 563.872 227.331 564.143 227.609 564.22C232.741 565.638 237.985 567.149 243.262 568.744L246.869 569.837L258.817 573.331L260.762 573.908C266.769 575.702 271.083 577.133 274.74 578.601C279.038 580.328 281.128 582.258 281.831 585.032C281.87 585.186 281.97 585.315 282.106 585.392L282.192 585.431L289.871 588.202L285.201 607.315L276.859 606.192C276.717 606.173 276.575 606.208 276.459 606.287L276.378 606.355C274.447 608.288 271.689 609.09 267.49 608.79C260.082 608.264 250.564 606.453 237.247 603.302L226.189 600.678L205.037 595.703C204.729 595.631 204.421 595.823 204.349 596.131C204.278 596.44 204.469 596.748 204.777 596.82L213.984 598.978C218.508 600.041 223.196 601.147 227.963 602.276L237.768 604.602C250.734 607.653 260.068 609.412 267.409 609.934C271.633 610.235 274.606 609.466 276.766 607.561L276.982 607.365L285.557 608.521C285.815 608.555 286.059 608.412 286.159 608.18L286.19 608.089L291.105 587.975C291.166 587.722 291.05 587.464 290.83 587.339L290.743 587.3L282.859 584.453L282.792 584.23C281.893 581.413 279.654 579.406 275.545 577.692L275.166 577.537L274.39 577.23C271.116 575.951 267.306 574.685 262.282 573.167L257.916 571.877C255.42 571.152 249.76 569.504 246.931 568.659L245.86 568.336C240.566 566.714 235.295 565.176 230.123 563.729L228.401 563.25L232.023 539.329C233.347 530.467 234.194 524.463 234.502 521.575C234.535 521.261 234.308 520.978 233.993 520.945Z" fill="#597EF7"/>
<path fill-rule="evenodd" clip-rule="evenodd" d="M508.604 646.828C534.602 634.602 550.098 666.666 537.022 684.519C521.066 706.305 512.893 731.373 508.341 738.925C504.502 745.297 493.984 760.829 481.319 753.67C469.663 747.081 476.016 721.221 476.016 721.221C476.016 721.221 476.531 661.91 508.604 646.828Z" fill="#5B8C00"/>
<path fill-rule="evenodd" clip-rule="evenodd" d="M430.405 748.691C421.566 736.836 418.339 719.823 428.204 715.46C437.663 711.278 453.331 721.576 460.588 741.397C467.845 761.217 472.032 775.467 464.933 777.945C453.286 782.01 442.079 764.35 430.405 748.691Z" fill="#5B8C00"/>
<path fill-rule="evenodd" clip-rule="evenodd" d="M523.326 749.591C513.329 761.239 498.903 784.668 489.865 776.462C484.388 771.489 491.711 747.938 511.755 735.124C528.804 724.224 533.323 737.944 523.326 749.591Z" fill="#7CB305"/>
<path fill-rule="evenodd" clip-rule="evenodd" d="M427.665 668.766C431.466 666.223 436.249 665.643 440.612 667.032C446.702 668.971 455.944 674.746 465.091 691.319C477.033 712.958 483.249 736.679 482.02 751.705C481.217 761.532 469.04 765.768 462.228 758.604C459.099 755.313 455.789 750.241 452.55 742.546C439.516 711.579 427.33 692.174 425.877 690.226C422 685.027 419.227 674.41 427.665 668.766Z" fill="#7CB305"/>
<path fill-rule="evenodd" clip-rule="evenodd" d="M436.406 681.117C436.535 682.646 435.393 683.989 433.855 684.117C432.317 684.246 430.966 683.11 430.837 681.581C430.708 680.052 431.85 678.709 433.388 678.581C434.926 678.452 436.277 679.588 436.406 681.117Z" fill="white"/>
<path fill-rule="evenodd" clip-rule="evenodd" d="M460.141 692.978C460.27 694.507 459.128 695.85 457.59 695.978C456.052 696.107 454.701 694.971 454.572 693.442C454.443 691.913 455.585 690.57 457.123 690.442C458.661 690.314 460.012 691.449 460.141 692.978Z" fill="white"/>
<path fill-rule="evenodd" clip-rule="evenodd" d="M456.163 724.559C456.311 726.31 455.003 727.848 453.242 727.995C451.48 728.142 449.933 726.841 449.785 725.09C449.637 723.34 450.945 721.801 452.707 721.654C454.468 721.507 456.015 722.808 456.163 724.559Z" fill="white"/>
<path fill-rule="evenodd" clip-rule="evenodd" d="M529.064 677.362C529.064 679.847 527.038 681.862 524.539 681.862C522.039 681.862 520.013 679.847 520.013 677.362C520.013 674.878 522.039 672.863 524.539 672.863C527.038 672.863 529.064 674.878 529.064 677.362Z" fill="white"/>
<path fill-rule="evenodd" clip-rule="evenodd" d="M492.632 691.102C492.632 693.587 490.606 695.601 488.107 695.601C485.607 695.601 483.581 693.587 483.581 691.102C483.581 688.617 485.607 686.603 488.107 686.603C490.606 686.603 492.632 688.617 492.632 691.102Z" fill="white"/>
<path fill-rule="evenodd" clip-rule="evenodd" d="M504.431 721.643C504.431 722.682 503.585 723.524 502.54 723.524C501.495 723.524 500.648 722.682 500.648 721.643C500.648 720.604 501.495 719.762 502.54 719.762C503.585 719.762 504.431 720.604 504.431 721.643Z" fill="white"/>
<path fill-rule="evenodd" clip-rule="evenodd" d="M518.059 745.693C518.059 747.227 516.808 748.471 515.264 748.471C513.721 748.471 512.47 747.227 512.47 745.693C512.47 744.159 513.721 742.915 515.264 742.915C516.808 742.915 518.059 744.159 518.059 745.693Z" fill="white"/>
<path d="M452.791 751.856C453.051 751.61 453.464 751.619 453.712 751.878L453.831 752.006L453.922 752.105C454.086 752.288 454.276 752.505 454.489 752.758C455.095 753.476 455.768 754.334 456.492 755.331C458.556 758.172 460.618 761.561 462.541 765.494C468.029 776.717 471.321 790.047 471.321 805.436C471.321 805.794 471.029 806.084 470.669 806.084C470.309 806.084 470.018 805.794 470.018 805.436C470.018 790.25 466.774 777.112 461.369 766.061C459.48 762.197 457.457 758.871 455.436 756.089C454.772 755.175 454.153 754.383 453.594 753.714L453.49 753.59C453.332 753.402 453.187 753.235 453.058 753.09L452.895 752.908C452.834 752.841 452.792 752.796 452.769 752.772C452.521 752.513 452.531 752.103 452.791 751.856Z" fill="#253368"/>
<path d="M502.018 756.39C502.233 756.104 502.641 756.045 502.93 756.259C503.218 756.473 503.277 756.879 503.062 757.166C500.689 760.326 498.499 763.723 496.485 767.325C492.227 774.938 488.935 783.101 486.492 791.264C485.637 794.121 484.949 796.773 484.414 799.152L484.305 799.64C484.178 800.222 484.067 800.753 483.973 801.228L483.912 801.54L483.804 802.127C483.745 802.48 483.408 802.718 483.054 802.658C482.699 802.599 482.459 802.265 482.519 801.912L482.556 801.703C482.587 801.535 482.624 801.337 482.669 801.11L482.776 800.57C482.881 800.056 483.003 799.488 483.142 798.87L483.26 798.349C483.784 796.078 484.441 793.575 485.243 790.894C487.712 782.647 491.038 774.398 495.346 766.695C497.387 763.045 499.608 759.598 502.018 756.39Z" fill="#253368"/>
<path d="M513.404 675.571C513.653 675.808 513.671 676.196 513.452 676.455L513.424 676.487C513.411 676.5 513.383 676.529 513.341 676.574L513.181 676.748L513.088 676.85C512.808 677.161 512.482 677.535 512.114 677.973C511.059 679.228 509.881 680.738 508.613 682.504C504.981 687.558 501.348 693.645 497.955 700.772C492.307 712.637 487.908 726.17 485.241 741.384C482.004 759.858 481.468 780.039 484.118 801.942C484.161 802.297 483.906 802.62 483.549 802.663C483.191 802.706 482.867 802.452 482.824 802.097C480.159 780.068 480.698 759.76 483.958 741.162C486.644 725.831 491.08 712.186 496.778 700.218C500.204 693.02 503.877 686.866 507.552 681.751L507.837 681.357C508.97 679.797 510.029 678.44 510.994 677.285L511.114 677.142C511.46 676.73 511.771 676.372 512.044 676.067L512.118 675.985C512.203 675.891 512.28 675.807 512.347 675.735L512.483 675.59C512.732 675.332 513.144 675.323 513.404 675.571Z" fill="#253368"/>
<path d="M457.004 713.985C457.312 713.8 457.713 713.898 457.899 714.204L457.965 714.313C458.017 714.401 458.078 714.505 458.148 714.626L458.251 714.804C458.425 715.11 458.622 715.461 458.838 715.856L459.017 716.186C459.68 717.413 460.406 718.832 461.182 720.44L461.288 720.66C463.817 725.928 466.345 732.089 468.704 739.09C475.309 758.691 479.327 780.939 479.477 805.432C479.48 805.79 479.19 806.082 478.83 806.084C478.47 806.086 478.176 805.798 478.174 805.44C478.025 781.091 474.031 758.978 467.468 739.501C465.169 732.678 462.71 726.662 460.248 721.504L460.112 721.218C459.27 719.465 458.487 717.936 457.781 716.636L457.568 716.247C457.364 715.877 457.18 715.552 457.019 715.272L456.942 715.14L456.785 714.875C456.598 714.569 456.697 714.171 457.004 713.985Z" fill="#253368"/>
<path fill-rule="evenodd" clip-rule="evenodd" d="M507.152 837.568H450.83C447.786 837.568 445.295 835.092 445.295 832.065V791.215C445.295 788.188 447.786 785.712 450.83 785.712H507.152C510.196 785.712 512.688 788.188 512.688 791.215V832.065C512.688 835.092 510.196 837.568 507.152 837.568Z" fill="#253368"/>
</g>
</svg>
